<svg width="65" height="64" viewBox="0 0 65 64" fill="none" xmlns="http://www.w3.org/2000/svg">
<path d="M19.1667 21.3333V16C19.1667 12.4638 20.5714 9.07238 23.0719 6.5719C25.5724 4.07141 28.9638 2.66666 32.5 2.66666C36.0362 2.66666 39.4276 4.07141 41.9281 6.5719C44.4286 9.07238 45.8333 12.4638 45.8333 16V21.3333H53.8333C54.5406 21.3333 55.2189 21.6143 55.719 22.1144C56.2191 22.6145 56.5 23.2927 56.5 24V56C56.5 56.7072 56.2191 57.3855 55.719 57.8856C55.2189 58.3857 54.5406 58.6667 53.8333 58.6667H11.1667C10.4594 58.6667 9.78115 58.3857 9.28105 57.8856C8.78095 57.3855 8.5 56.7072 8.5 56V24C8.5 23.2927 8.78095 22.6145 9.28105 22.1144C9.78115 21.6143 10.4594 21.3333 11.1667 21.3333H19.1667ZM19.1667 26.6667H13.8333V53.3333H51.1667V26.6667H45.8333V32H40.5V26.6667H24.5V32H19.1667V26.6667ZM24.5 21.3333H40.5V16C40.5 13.8783 39.6571 11.8434 38.1569 10.3431C36.6566 8.84284 34.6217 7.99999 32.5 7.99999C30.3783 7.99999 28.3434 8.84284 26.8431 10.3431C25.3429 11.8434 24.5 13.8783 24.5 16V21.3333Z" fill="#136F63"/>
</svg>
